<?xml version="1.0" standalone="no"?>
<!DOCTYPE svg PUBLIC "-//W3C//DTD SVG 20010904//EN"
 "http://www.w3.org/TR/2001/REC-SVG-20010904/DTD/svg10.dtd">
<svg version="1.0" xmlns="http://www.w3.org/2000/svg"
 width="260.000000pt" height="260.000000pt" viewBox="0 0 260.000000 260.000000"
 preserveAspectRatio="xMidYMid meet">
<metadata>
Created by potrace 1.11, written by Peter Selinger 2001-2013
</metadata>
<g transform="translate(0.000000,260.000000) scale(0.100000,-0.100000)"
fill="#000000" stroke="none">
<path d="M997 2444 c-60 -15 -182 -73 -242 -114 -25 -17 -45 -27 -45 -23 0 4
-4 3 -8 -2 -4 -6 -27 -26 -52 -45 -77 -58 -213 -215 -255 -293 -11 -20 -23
-37 -27 -37 -5 0 -8 -9 -8 -20 0 -11 -3 -20 -8 -20 -14 0 -91 -195 -95 -240
-1 -11 -5 -20 -10 -20 -5 0 -7 -7 -4 -15 4 -8 2 -17 -2 -19 -5 -3 -12 -20 -16
-38 -4 -18 -9 -40 -11 -48 -4 -15 -13 -127 -18 -235 -1 -33 -1 -64 2 -69 3 -5
6 -34 8 -65 3 -54 9 -98 20 -133 3 -9 7 -25 9 -35 6 -29 57 -207 63 -223 3 -8
7 -19 7 -25 4 -22 26 -67 65 -130 22 -37 40 -71 40 -76 0 -5 4 -9 8 -9 5 0 15
-12 22 -28 8 -15 25 -42 38 -60 12 -17 20 -32 17 -32 -3 0 20 -26 52 -58 66
-66 178 -139 206 -134 4 1 7 -3 7 -8 0 -6 6 -10 13 -9 14 2 77 -23 77 -31 0
-3 13 -7 30 -8 16 -1 42 -7 57 -13 15 -6 39 -13 53 -15 14 -3 41 -9 60 -14 19
-4 68 -9 109 -10 41 0 78 -3 82 -5 4 -3 10 1 12 7 4 10 6 10 6 1 1 -7 7 -11
14 -8 6 2 53 6 102 9 93 5 224 31 333 66 58 18 95 36 182 88 19 12 49 28 66
37 18 9 56 38 85 66 29 27 57 49 62 49 6 0 8 3 5 6 -3 3 4 15 16 28 57 60 130
156 119 156 -4 0 0 5 10 11 9 6 15 14 12 20 -4 5 -1 9 4 9 6 0 18 16 26 35 8
19 23 52 32 73 9 20 17 42 18 47 0 6 7 30 15 55 8 25 15 50 16 55 1 6 3 13 4
18 1 4 4 12 5 17 1 6 4 11 5 13 12 13 19 286 7 294 -4 2 -3 11 4 19 6 8 7 14
2 14 -5 0 -9 18 -9 41 1 22 -1 42 -5 45 -3 2 -5 15 -4 29 2 14 -2 25 -8 25 -5
0 -8 3 -4 6 3 4 -1 23 -9 43 -8 20 -15 37 -14 39 1 6 -71 141 -94 175 -14 21
-26 40 -26 43 0 13 -179 194 -192 194 -3 0 -13 6 -20 13 -26 23 -74 54 -96 61
-12 4 -22 11 -22 16 0 5 -16 14 -35 20 -19 6 -35 16 -35 21 0 6 -4 8 -9 4 -5
-3 -15 0 -23 7 -7 7 -20 15 -28 17 -8 2 -35 9 -60 16 -25 6 -66 11 -93 11 -26
-1 -47 3 -47 7 0 5 -5 5 -10 2 -6 -3 -31 -8 -58 -10 -26 -2 -63 -7 -82 -10
-19 -4 -43 -7 -52 -7 -10 1 -18 -3 -18 -6 0 -4 -13 -9 -29 -10 -15 -1 -54 -11
-85 -22 -31 -10 -56 -17 -56 -14 0 2 -13 -2 -29 -10 -15 -8 -40 -17 -55 -20
-30 -5 -150 -69 -172 -90 -7 -8 -10 -16 -7 -20 4 -3 0 -6 -8 -6 -8 0 -28 -21
-45 -47 -29 -45 -87 -152 -89 -163 0 -3 -13 -34 -30 -70 -16 -36 -30 -69 -31
-75 -1 -5 -7 -30 -14 -55 -7 -25 -15 -58 -17 -75 -8 -56 -12 -329 -5 -339 3
-6 8 -20 9 -31 10 -73 69 -214 110 -261 13 -16 28 -34 31 -40 8 -14 46 -37
163 -98 126 -66 163 -77 272 -82 54 -2 103 -6 108 -9 5 -4 9 -3 9 2 0 4 15 9
33 10 29 3 64 8 77 13 3 1 9 2 14 1 8 -2 62 13 96 26 8 3 21 7 29 9 29 6 153
98 185 138 18 22 50 73 71 111 22 39 42 72 45 75 4 3 11 19 15 35 4 17 10 36
12 43 1 6 5 20 7 30 3 9 5 17 6 17 16 0 14 221 -4 293 -7 31 -55 130 -81 166
-51 73 -135 133 -215 152 -47 11 -210 12 -210 1 0 -4 -4 -6 -9 -3 -16 10 -185
-44 -232 -75 -25 -16 -64 -49 -86 -72 -48 -51 -98 -141 -90 -161 3 -8 1 -16
-4 -18 -20 -7 -13 -133 10 -206 43 -132 149 -213 280 -213 75 0 94 3 142 24
38 16 99 74 99 94 0 7 5 13 11 13 5 0 8 4 4 9 -3 5 -1 12 5 16 5 3 7 30 4 63
-3 31 -6 65 -7 75 -1 9 -5 17 -9 17 -4 0 -8 6 -8 13 0 6 -11 25 -25 41 -20 23
-33 29 -79 31 -92 5 -165 -45 -132 -90 7 -10 34 -18 76 -21 36 -4 66 -7 68 -9
1 -1 6 -16 11 -32 9 -29 -11 -94 -28 -91 -3 1 -13 -2 -21 -5 -40 -16 -90 -25
-96 -16 -3 5 -16 9 -29 9 -57 0 -127 99 -128 179 0 76 6 94 49 137 44 45 99
77 154 90 125 28 125 28 205 20 33 -4 62 -11 63 -16 2 -6 9 -10 15 -10 14 0
77 -70 77 -86 0 -6 6 -17 14 -23 15 -12 25 -63 32 -153 5 -64 -22 -170 -55
-216 -10 -15 -22 -37 -25 -49 -4 -13 -12 -23 -17 -23 -5 0 -9 -6 -9 -14 0 -20
-76 -85 -126 -107 -41 -19 -102 -31 -156 -33 -16 0 -28 -4 -28 -9 0 -5 -7 -4
-15 3 -8 7 -15 8 -15 3 0 -10 -50 -10 -125 1 -44 6 -119 39 -147 64 -10 8 -18
12 -18 8 0 -15 -81 49 -99 78 -25 39 -59 127 -66 166 -3 17 -7 44 -11 62 -3
18 -7 34 -9 36 -2 2 0 15 6 29 6 17 6 22 -3 17 -7 -5 -8 -3 -3 5 4 7 9 40 10
74 5 101 12 130 57 237 67 156 117 232 167 252 90 36 151 55 155 50 3 -3 6 -1
6 4 0 5 8 10 18 11 18 1 57 10 57 13 0 2 17 6 55 14 14 3 36 8 50 12 47 10
194 12 213 3 10 -6 26 -12 36 -14 9 -2 32 -12 51 -24 19 -11 44 -25 55 -30 85
-38 295 -237 295 -280 0 -5 6 -16 13 -23 15 -15 59 -106 63 -128 1 -8 5 -26 8
-40 24 -97 27 -282 5 -365 -9 -35 -14 -67 -11 -70 3 -3 0 -5 -7 -5 -7 0 -9 -4
-6 -10 3 -6 3 -16 -2 -23 -4 -6 -8 -18 -9 -25 -4 -22 -67 -142 -76 -142 -4 0
-8 -5 -8 -11 0 -6 -6 -16 -12 -24 -7 -7 -22 -26 -33 -41 -38 -54 -153 -161
-196 -183 -62 -32 -85 -45 -100 -58 -14 -11 -132 -42 -250 -67 -77 -15 -365
-14 -395 2 -11 5 -22 10 -27 10 -19 -1 -127 27 -127 32 0 4 -6 7 -12 7 -20 1
-122 47 -130 58 -4 6 -8 6 -8 2 0 -18 -110 89 -110 108 0 7 -3 15 -7 17 -5 1
-36 49 -70 104 -53 87 -104 209 -117 279 -2 11 -10 40 -17 65 -13 50 -14 53
-25 125 -8 59 -7 265 2 315 3 19 7 42 8 50 1 8 8 25 14 38 7 12 10 22 7 22 -3
0 1 16 9 35 9 20 15 36 15 38 -6 32 126 291 143 281 4 -3 8 -1 8 3 0 18 104
134 156 173 40 31 104 70 114 70 5 0 10 5 10 12 0 6 3 8 6 5 4 -4 14 1 23 11
9 9 25 19 36 20 11 2 22 7 25 12 3 4 16 11 30 15 33 10 94 49 119 76 30 32 21
96 -19 132 -34 30 -60 32 -143 11z"/>
</g>
</svg>
